<svg id="Capa_1" enable-background="new 0 0 512 512" height="512" viewBox="0 0 512 512" width="512" xmlns="http://www.w3.org/2000/svg"><g><g><g><path d="m348.528 261.476c3.261 0 6.566.831 9.593 2.578 9.194 5.308 12.344 17.063 7.036 26.257l-55.203 95.614 24.661 14.238c4.415 2.549 7.637 6.747 8.956 11.671 1.32 4.924.629 10.171-1.92 14.586l-43.859 75.966c-5.308 9.194-17.064 12.343-26.257 7.036-9.194-5.308-12.344-17.063-7.036-26.257l34.249-59.319-24.661-14.238c-4.415-2.549-7.637-6.747-8.956-11.671s-.628-10.171 1.92-14.586l64.814-112.26c3.559-6.167 10.021-9.615 16.663-9.615z" fill="#ffc751"/></g><g><g><path d="m322.616 363.994 42.296-73.259c5.318-9.211 2.352-21.472-6.89-26.737-3-1.709-6.268-2.522-9.494-2.522-6.642 0-13.104 3.447-16.664 9.614l-42.555 73.707c-5.53 9.578-1.761 21.844 8.206 26.64.116.056.233.112.349.169 8.969 4.344 19.769 1.019 24.752-7.612z" fill="#ffaf40"/></g></g><g><path d="m287.574 443.197-22.845 39.568c-5.211 9.025-2.632 20.764 6.202 26.294 9.275 5.806 21.435 2.723 26.86-6.673l23.075-39.966c5.244-9.083 2.152-20.7-6.916-25.971-.111-.064-.222-.129-.332-.193-9.106-5.291-20.779-2.178-26.044 6.941z" fill="#ffe059"/></g><g><path d="m313.343 465.803.088.457c1.853 9.642-3.939 19.095-13.361 21.856-.124.036-.247.072-.371.109-10.761 3.155-21.898-3.662-24.014-14.675l-.095-.493c-2.003-10.425 4.824-20.5 15.248-22.503 10.427-2.003 20.502 4.824 22.505 15.249z" fill="#fff370"/></g><g><g><path d="m51.092 467.675c9.194 5.308 20.949 2.158 26.257-7.036l42.114-72.943c5.308-9.194 2.158-20.949-7.036-26.257-9.194-5.308-20.949-2.158-26.257 7.036l-42.114 72.943c-5.307 9.194-2.157 20.949 7.036 26.257z" fill="#73e1ff"/><path d="m90.346 438.129 17.978-31.139c5.308-9.194 2.158-20.949-7.036-26.257-9.194-5.308-20.949-2.158-26.257 7.036l-17.978 31.139c-5.308 9.194-2.158 20.949 7.036 26.257 9.194 5.307 20.949 2.157 26.257-7.036z" fill="#b6f0ff"/></g><g><path d="m157.391 467.675c9.194 5.308 20.949 2.158 26.257-7.036l42.114-72.943c5.308-9.194 2.158-20.949-7.036-26.257-9.194-5.308-20.949-2.158-26.257 7.036l-42.114 72.943c-5.307 9.194-2.157 20.949 7.036 26.257z" fill="#73e1ff"/><path d="m196.645 438.129 17.978-31.139c5.308-9.194 2.158-20.949-7.036-26.257-9.194-5.308-20.949-2.158-26.257 7.036l-17.978 31.139c-5.308 9.194-2.158 20.949 7.036 26.257 9.194 5.307 20.95 2.157 26.257-7.036z" fill="#b6f0ff"/></g><g><path d="m369.99 467.675c9.194 5.308 20.949 2.158 26.257-7.036l42.114-72.943c5.308-9.194 2.158-20.949-7.036-26.257-9.194-5.308-20.949-2.158-26.257 7.036l-42.114 72.943c-5.308 9.194-2.158 20.949 7.036 26.257z" fill="#73e1ff"/><path d="m409.244 438.129 17.978-31.139c5.308-9.194 2.158-20.949-7.036-26.257-9.194-5.308-20.949-2.158-26.257 7.036l-17.978 31.139c-5.308 9.194-2.158 20.949 7.036 26.257 9.193 5.307 20.949 2.157 26.257-7.036z" fill="#b6f0ff"/></g></g><g><circle cx="375.602" cy="120.235" fill="#ffe059" r="120.213"/><path d="m309.373 166.695c.102-.158.204-.316.305-.474 4.486-6.96 5.278-15.592 2.476-23.384-3.828-10.644-5.029-22.384-2.928-34.301 3.498-19.836 15.388-36.116 31.372-45.845 8.682-5.285 13.328-15.286 12.087-25.374l-.065-.53c-2.303-18.73-23.177-29.153-39.313-19.369-28.586 17.334-49.837 46.436-56.099 81.946-3.806 21.586-1.593 42.834 5.431 62.031 7.473 20.423 34.96 23.585 46.734 5.3z" fill="#fff370"/><path d="m493.993 141.115c-11.529 65.386-73.879 109.028-139.265 97.499-43.487-7.668-77.361-37.812-91.782-76.38 13.838 14.597 32.327 25.027 53.654 28.787 52.989 9.343 103.511-26.033 112.855-79.022 8.817-50.006-22.176-97.807-70.197-110.887 12.057-1.664 24.578-1.495 37.218.734 65.387 11.53 109.047 73.883 97.517 139.269z" fill="#ffc751"/></g><path d="m391.914 156.307c-18.421-61.774-75.652-106.816-143.413-106.816s-124.992 45.042-143.414 106.816c-49.746 3.803-88.927 45.373-88.927 96.094 0 53.228 43.15 96.378 96.378 96.378 22.6 0 43.38-7.782 59.815-20.808 22.309 13.214 48.339 20.808 76.147 20.808s53.838-7.594 76.147-20.808c16.435 13.026 37.215 20.808 59.815 20.808 53.228 0 96.378-43.15 96.378-96.378.001-50.721-39.179-92.291-88.926-96.094z" fill="#f1eee0"/><path d="m480.84 252.4c0 53.23-43.15 96.38-96.38 96.38-22.6 0-43.38-7.78-59.81-20.81-22.31 13.22-48.34 20.81-76.15 20.81s-53.84-7.59-76.15-20.81c-16.43 13.03-37.21 20.81-59.81 20.81-53.23 0-96.38-43.15-96.38-96.38 0-9.66 1.42-19 4.08-27.8 11.93 39.67 48.74 68.57 92.3 68.57 22.6 0 43.38-7.78 59.81-20.8 22.31 13.21 48.34 20.8 76.15 20.8s53.84-7.59 76.15-20.8c16.43 13.02 37.21 20.8 59.81 20.8 43.56 0 80.37-28.9 92.3-68.57 2.66 8.8 4.08 18.14 4.08 27.8z" fill="#d8d4c9"/></g><path d="m105.09 156.31c-23.763 1.815-45.106 12.25-60.922 28.183-15.712 15.829-4.62 42.736 17.683 42.736 6.678 0 13.082-2.667 17.773-7.421 7.592-7.693 17.839-12.775 29.275-13.649l.007-.001c20.644-1.578 38.178-15.719 44.093-35.559 6-20.12 18.6-38.23 35.47-51 10.925-8.266 23.186-14.082 36.223-17.263 11.258-2.747 19.245-12.73 19.245-24.319 0-16.227-15.214-28.115-30.981-24.274-51.635 12.582-92.775 51.954-107.866 102.567z" fill="#f9f8f2"/><path d="m174.944 68.815c-18.724 10.594-34.937 25.107-47.527 42.428-7.949 10.936-5.789 26.214 4.822 34.593 11.038 8.715 27.177 6.566 35.392-4.849 5.823-8.091 12.85-15.338 20.84-21.386 3.431-2.596 6.995-4.95 10.673-7.056 11.4-6.527 15.711-20.873 10.008-32.707-.073-.151-.146-.303-.219-.455-6.127-12.726-21.697-17.523-33.989-10.568z" fill="#fff"/></g></svg>